# xmcd CD database file
#
# Track frame offsets:
#	150
#	17516
#	35977
#	56365
#	73645
#	91179
#	111019
#	133715
#	165660
#	182388
#	200889
#	217228
#	236995
#	258050
#	276839
#	297242
#
# Disc length: 4184 seconds
#
# Revision: 0
# Processed by: cddbd v1.5.2PL0 Copyright (c) Steve Scherf et al.
# Submitted via: CDex 1.51
#
DISCID=f0105610
DTITLE=Acker Bilk - Mr Acker Bilk
DYEAR=1998
DGENRE=Jazz
TTITLE0=Somthing about the way you look tonight
TTITLE1=Show me heaven
TTITLE2=Why
TTITLE3=Without you
TTITLE4=I swear
TTITLE5=I will always love you
TTITLE6=You are not alone
TTITLE7=Jesus to a child
TTITLE8=Make it with you
TTITLE9=Time to say goodbye
TTITLE10=Now and forever
TTITLE11=candle in the wind
TTITLE12=When you tell me that you love me
TTITLE13=Fragile
TTITLE14=I can't make you love me
TTITLE15=Save the best for last
EXTD=YEAR: 1998
EXTT0=
EXTT1=
EXTT2=
EXTT3=
EXTT4=
EXTT5=
EXTT6=
EXTT7=
EXTT8=
EXTT9=
EXTT10=
EXTT11=
EXTT12=
EXTT13=
EXTT14=
EXTT15=
PLAYORDER=
